<svg width="56" height="56" viewBox="0 0 56 56" fill="none" xmlns="http://www.w3.org/2000/svg">
<g id="square-reddit 1" clip-path="url(#clip0_166_2232)">
<g id="Vector" filter="url(#filter0_d_166_2232)">
<path d="M8 0H48C52.4125 0 56 3.5875 56 8V48C56 52.4125 52.4125 56 48 56H8C3.5875 56 0 52.4125 0 48V8C0 3.5875 3.5875 0 8 0ZM38.2375 16.8C40.8125 16.8 42.9 14.7125 42.9 12.1375C42.9 9.5625 40.8125 7.475 38.2375 7.475C35.9875 7.475 34.1 9.075 33.6625 11.2C29.8875 11.6 26.9375 14.8 26.9375 18.6875V18.7125C22.8375 18.8875 19.0875 20.05 16.1125 21.9C15.0125 21.05 13.625 20.5375 12.1125 20.5375C8.5 20.5375 5.575 23.4625 5.575 27.075C5.575 29.7 7.1125 31.95 9.3375 33C9.55 40.5875 17.825 46.7 28 46.7C38.175 46.7 46.45 40.5875 46.6625 32.9875C48.875 31.9375 50.4 29.6875 50.4 27.075C50.4 23.4625 47.475 20.5375 43.8625 20.5375C42.3625 20.5375 40.9875 21.0375 39.875 21.8875C36.875 20.025 33.0875 18.8625 28.9375 18.7125V18.7C28.9375 15.925 31 13.6125 33.675 13.2375C34.1625 15.3 36.0125 16.825 38.2125 16.825L38.2375 16.8ZM19.375 27.0125C21.2 27.0125 22.6 28.9375 22.5 31.3125C22.4 33.6875 21.025 34.55 19.1875 34.55C17.35 34.55 15.75 33.5875 15.8625 31.2125C15.975 28.8375 17.55 27.025 19.375 27.025V27.0125ZM40.175 31.2C40.2875 33.575 38.675 34.5375 36.85 34.5375C35.025 34.5375 33.65 33.675 33.5375 31.3C33.425 28.925 34.825 27 36.6625 27C38.5 27 40.075 28.825 40.175 31.1875V31.2ZM34.9125 37.4C33.7875 40.0875 31.125 41.9875 28.025 41.9875C24.925 41.9875 22.2625 40.1 21.1375 37.4C21 37.075 21.225 36.725 21.5625 36.6875C23.575 36.4875 25.75 36.375 28.025 36.375C30.3 36.375 32.475 36.4875 34.4875 36.6875C34.825 36.725 35.05 37.075 34.9125 37.4Z" fill="#F1D412"/>
</g>
</g>
<defs>
<filter id="filter0_d_166_2232" x="-9" y="-12" width="88" height="88" filterUnits="userSpaceOnUse" color-interpolation-filters="sRGB">
<feFlood flood-opacity="0" result="BackgroundImageFix"/>
<feColorMatrix in="SourceAlpha" type="matrix" values="0 0 0 0 0 0 0 0 0 0 0 0 0 0 0 0 0 0 127 0" result="hardAlpha"/>
<feOffset dx="7" dy="4"/>
<feGaussianBlur stdDeviation="8"/>
<feComposite in2="hardAlpha" operator="out"/>
<feColorMatrix type="matrix" values="0 0 0 0 0.160784 0 0 0 0 0.117647 0 0 0 0 0.321569 0 0 0 1 0"/>
<feBlend mode="normal" in2="BackgroundImageFix" result="effect1_dropShadow_166_2232"/>
<feBlend mode="normal" in="SourceGraphic" in2="effect1_dropShadow_166_2232" result="shape"/>
</filter>
<clipPath id="clip0_166_2232">
<rect width="56" height="56" fill="white"/>
</clipPath>
</defs>
</svg>
