<svg width="56" height="56" viewBox="0 0 56 56" fill="none" xmlns="http://www.w3.org/2000/svg">
<g id="square-x-twitter 1" clip-path="url(#clip0_59_63)">
<path id="Vector" d="M8.14545 0.395508C3.65273 0.395508 0 3.98301 0 8.39551V48.3955C0 52.808 3.65273 56.3955 8.14545 56.3955H48.8727C53.3655 56.3955 57.0182 52.808 57.0182 48.3955V8.39551C57.0182 3.98301 53.3655 0.395508 48.8727 0.395508H8.14545ZM45.9582 10.8955L32.7473 25.7205L48.2873 45.8955H36.12L26.6 33.658L15.6927 45.8955H9.64727L23.7745 30.033L8.87091 10.8955H21.3436L29.96 22.083L39.9127 10.8955H45.9582ZM41.1473 42.3455L19.5236 14.258H15.9218L37.7873 42.3455H41.1345H41.1473Z" fill="#F1D412"/>
</g>
<defs>
<clipPath id="clip0_59_63">
<rect width="56" height="56" fill="white"/>
</clipPath>
</defs>
</svg>
