<svg width="56" height="58" viewBox="0 0 56 58" fill="none" xmlns="http://www.w3.org/2000/svg">
<g id="Discord Icon SVG" clip-path="url(#clip0_75_39)">
<g id="Group">
<path id="Vector" d="M15.0559 1.11888C10.1589 1.18973 9.56074 1.24033 7.80675 1.72614C4.42044 2.67753 1.42953 5.80494 0.517046 9.36757C0.10136 10.9971 0.0810826 11.4221 0.0303893 26.371C-0.0203041 41.4615 0.0608053 46.9269 0.344688 48.182C1.45994 53.0401 5.19097 56.3598 10.1792 56.9063C11.8521 57.0885 44.4276 57.0885 45.9484 56.9063C47.5301 56.714 48.4628 56.4509 49.8417 55.7728C52.6805 54.3963 54.6272 52.0786 55.5092 49.0422C56.006 47.3115 56.0162 47.0383 56.0162 28.7495C56.0162 10.1975 56.0364 10.7744 55.4382 8.92224C54.8806 7.16117 54.1405 5.89603 52.934 4.6309C51.2307 2.84959 49.2739 1.81723 46.7595 1.36179C46.1411 1.25045 44.7115 1.17961 41.9741 1.11888C37.6449 1.01767 22.2848 1.01767 15.0559 1.11888ZM22.9641 14.9139L23.471 15.8957L24.3835 15.8248C25.4075 15.7337 30.2842 15.7135 31.6732 15.7945L32.5857 15.8451L33.1433 14.8532C33.5995 14.0435 33.7415 13.8715 33.9341 13.8715C34.4208 13.8715 37.6246 14.7216 39.8957 15.4605C41.6192 16.0171 41.9031 16.1892 42.4202 16.9888C44.8737 20.8246 46.6277 25.0553 47.449 29.1543C47.9153 31.4619 48.0573 32.9902 48.0573 35.733C48.0573 39.2855 48.0776 39.1742 47.2868 39.741C45.5226 41.0061 42.7852 42.4737 40.6561 43.3238C38.75 44.093 37.8983 44.3461 37.7463 44.2145C37.3306 43.8805 35.7895 41.2996 35.7895 40.9555C35.7895 40.8644 36.3978 40.5102 37.361 40.0446C38.2228 39.6195 38.9325 39.2349 38.9325 39.1944C38.9325 39.0527 38.3444 38.6681 38.1417 38.6681C38.0403 38.6681 37.4117 38.8706 36.7628 39.1135C33.6198 40.3077 31.2372 40.743 27.932 40.743C24.7485 40.7328 22.5484 40.328 19.4358 39.1742L17.8035 38.5669L17.4588 38.911L17.1141 39.245L18.7261 40.0446C19.6082 40.4798 20.3483 40.8442 20.3686 40.8644C20.5105 40.9656 18.8072 43.7692 18.3713 44.1639C18.1786 44.3359 18.1381 44.3359 17.327 44.0525C15.7048 43.4959 12.6936 42.1397 11.5581 41.4818C11.3654 41.3603 10.5138 40.8138 9.66213 40.2673L8.13119 39.2653L8.06022 38.0811C7.93856 36.2492 8.07036 32.5449 8.30355 31.0267C8.9727 26.5835 10.3414 22.7477 12.7848 18.4563C13.9001 16.4928 14.2043 16.1588 15.2283 15.754C15.8163 15.5212 18.5639 14.7216 20.8856 14.0941C21.3013 13.9828 21.8285 13.9018 22.0516 13.9018L22.4571 13.9221L22.9641 14.9139Z" fill="#F1D412"/>
<path id="Vector_2" d="M20.3535 26.7255C19.543 27.0294 18.7933 27.6778 18.3577 28.4478C17.7093 29.5825 17.6485 31.244 18.2057 32.3787C18.6109 33.1993 19.31 33.9287 19.9888 34.2529C20.4244 34.4556 20.6777 34.4961 21.4375 34.4961C22.3189 34.4961 22.3797 34.486 23.0079 34.101C24.1628 33.4121 24.8112 32.2774 24.8923 30.7881C25.0037 29.0557 24.1729 27.5765 22.7141 26.8876C22.1163 26.6141 20.8803 26.533 20.3535 26.7255Z" fill="#F1D412"/>
<path id="Vector_3" d="M33.6152 26.7255C33.1188 26.918 32.2981 27.5259 31.9739 27.9615C30.6873 29.6433 30.9 32.247 32.44 33.6349C33.1998 34.3137 33.676 34.4961 34.7195 34.4961C35.5401 34.4961 35.6617 34.4657 36.2189 34.1618C36.9585 33.7464 37.6373 32.946 37.9817 32.0849C38.1843 31.5479 38.2147 31.3453 38.1742 30.4234C38.1236 29.1772 37.8703 28.5086 37.1408 27.7285C36.4317 26.9686 35.7833 26.6647 34.8005 26.6242C34.2838 26.6039 33.8583 26.6444 33.6152 26.7255Z" fill="#F1D412"/>
</g>
</g>
<defs>
<clipPath id="clip0_75_39">
<rect width="56" height="56.076" fill="white" transform="translate(0 0.961914)"/>
</clipPath>
</defs>
</svg>
